#!OML:ASF H:\BreakDance\Project 1\Capture day 1\Session 1\Male.ASF
:FULLY-SPECIFIED
:DEGREES
127
root 22.7759 15.9534 -0.888139 147.36 -86.7077 -144.413
lowerback -8.66502 -0.56166 2.65452
upperback 3.27861 -1.21435 1.49658
thorax 8.32272 -0.505686 -0.101547
lowerneck -5.93793 0.235714 -4.66518
upperneck 17.8341 -0.264614 4.8703
head 6.38393 -0.185966 2.30099
rclavicle -4.27387e-015 -1.59028e-015
rhumerus -13.7222 14.2192 -81.4739
rradius 41.8996
rwrist 8.87992
rhand -36.3327 -26.4551
rfingers 7.12502
rthumb -9.43079 -56.2241
lclavicle -4.27387e-015 -1.59028e-015
lhumerus -15.0089 -0.675066 81.8987
lradius 42.1457
lwrist -16.2542
lhand -34.5163 -42.1284
lfingers 7.12502
lthumb -7.67793 -12.2878
rfemur -19.6324 2.45279 13.3943
rtibia 44.6406
rfoot -29.3325 -18.8687
rtoes -15.2187
lfemur -18.6777 0.485184 -7.96041
ltibia 42.284
lfoot -32.3703 18.2776
ltoes -27.5016
128
root 22.7724 15.9551 -0.873033 150.079 -86.5297 -147.162
lowerback -8.73821 -0.560177 2.63974
upperback 3.29069 -1.21152 1.47153
thorax 8.37817 -0.503418 -0.120167
lowerneck -6.02027 0.270373 -4.63301
upperneck 17.996 -0.190056 4.6622
head 6.44686 -0.165157 2.23608
rclavicle 2.6339e-015 -8.34896e-015
rhumerus -13.7055 14.4195 -81.6234
rradius 41.8473
rwrist 8.97836
rhand -36.4087 -26.6445
rfingers 7.12502
rthumb -9.50418 -56.4102
lclavicle 2.6339e-015 -8.34896e-015
lhumerus -15.0999 -0.18938 81.8466
lradius 42.1826
lwrist -16.3988
lhand -34.5881 -42.2017
lfingers 7.12502
lthumb -7.74719 -12.3636
rfemur -19.6335 2.57291 13.2966
rtibia 44.603
rfoot -29.2376 -18.845
rtoes -15.393
lfemur -18.5299 0.237426 -8.10169
ltibia 42.2607
lfoot -32.6374 18.6048
ltoes -27.2585
129
root 22.769 15.9564 -0.859576 152.513 -86.3522 -149.628
lowerback -8.80767 -0.553837 2.60591
upperback 3.2982 -1.19956 1.44804
thorax 8.42705 -0.497851 -0.124942
lowerneck -6.068 0.300994 -4.6168
upperneck 18.1422 -0.121876 4.46585
head 6.49923 -0.14836 2.17681
rclavicle 1.7344e-014 -3.18055e-014
rhumerus -13.7156 14.5809 -81.7681
rradius 41.7854
rwrist 9.07966
rhand -36.4988 -26.7043
rfingers 7.12502
rthumb -9.59104 -56.466
lclavicle 1.7344e-014 -3.18055e-014
lhumerus -15.1978 0.280015 81.8
lradius 42.2197
lwrist -16.497
lhand -34.6081 -42.2343
lfingers 7.12502
lthumb -7.76654 -12.397
rfemur -19.6386 2.68336 13.1981
rtibia 44.5732
rfoot -29.144 -18.8136
rtoes -15.5874
lfemur -18.3876 0.0131316 -8.23996
ltibia 42.2427
lfoot -32.8954 18.9081
ltoes -27.0259
130
root 22.7656 15.9569 -0.847694 154.73 -86.1691 -151.883
lowerback -8.8631 -0.53811 2.56302
upperback 3.29983 -1.17267 1.42061
thorax 8.46172 -0.485554 -0.126234
lowerneck -6.06193 0.32779 -4.63475
upperneck 18.2531 -0.0637182 4.31503
head 6.53137 -0.135821 2.13654
rclavicle 5.06901e-015 -1.07344e-014
rhumerus -13.7595 14.7053 -81.9127
rradius 41.7229
rwrist 9.15784
rhand -36.5965 -26.6019
rfingers 7.12502
rthumb -9.68536 -56.3592
lclavicle 5.06901e-015 -1.07344e-014
lhumerus -15.3027 0.730846 81.7553
lradius 42.2561
lwrist -16.5702
lhand -34.5798 -42.222
lfingers 7.12502
lthumb -7.73917 -12.3837
rfemur -19.6445 2.7966 13.1013
rtibia 44.5537
rfoot -29.0587 -18.7686
rtoes -15.7713
lfemur -18.2446 -0.189172 -8.37243
ltibia 42.2303
lfoot -33.1478 19.1827
ltoes -26.756
131
root 22.7622 15.9566 -0.836901 156.713 -85.9749 -153.91
lowerback -8.89502 -0.512849 2.52643
upperback 3.2948 -1.132 1.38661
thorax 8.47548 -0.46626 -0.135527
lowerneck -6.00285 0.356746 -4.69726
upperneck 18.3204 -0.00956371 4.23087
head 6.5402 -0.12332 2.12417
rclavicle -1.24986e-014 1.43125e-014
rhumerus -13.8326 14.8043 -82.0637
rradius 41.6698
rwrist 9.19911
rhand -36.6865 -26.4048
rfingers 7.12502
rthumb -9.77219 -56.1581
lclavicle -1.24986e-014 1.43125e-014
lhumerus -15.4023 1.17014 81.7065
lradius 42.2786
lwrist -16.6391
lhand -34.5223 -42.154
lfingers 7.12502
lthumb -7.68374 -12.3136
rfemur -19.651 2.90463 13.0093
rtibia 44.5446
rfoot -28.9854 -18.6883
rtoes -15.9313
lfemur -18.0989 -0.383667 -8.49557
ltibia 42.2231
lfoot -33.4074 19.4362
ltoes -26.4329
132
root 22.759 15.9554 -0.8268 158.487 -85.7803 -155.731
lowerback -8.91037 -0.482631 2.49526
upperback 3.28489 -1.08394 1.34607
thorax 8.47419 -0.443043 -0.153387
lowerneck -5.9063 0.395565 -4.8017
upperneck 18.3461 0.0516446 4.21254
head 6.52848 -0.104994 2.13989
rclavicle 1.56543e-015 -1.74931e-014
rhumerus -13.9264 14.8923 -82.2192
rradius 41.6403
rwrist 9.18794
rhand -36.7429 -26.2333
rfingers 7.12502
rthumb -9.82664 -55.984
lclavicle 1.56543e-015 -1.74931e-014
lhumerus -15.4943 1.58735 81.6534
lradius 42.2888
lwrist -16.6997
lhand -34.4728 -42.0397
lfingers 7.12502
lthumb -7.63592 -12.1975
rfemur -19.6581 2.99214 12.9147
rtibia 44.5437
rfoot -28.9283 -18.5613
rtoes -16.0509
lfemur -17.9567 -0.57235 -8.61521
ltibia 42.2203
lfoot -33.6735 19.6737
ltoes -26.1076
133
root 22.7562 15.9537 -0.817326 160.037 -85.6052 -157.326
lowerback -8.91976 -0.455814 2.46137
upperback 3.27212 -1.03935 1.30104
thorax 8.46622 -0.421577 -0.174955
lowerneck -5.80201 0.443822 -4.91568
upperneck 18.3509 0.122494 4.22277
head 6.50803 -0.0801104 2.16678
rclavicle 9.24349e-015 2.34566e-014
rhumerus -14.0403 14.974 -82.3781
rradius 41.6437
rwrist 9.11982
rhand -36.7703 -26.1457
rfingers 7.12502
rthumb -9.85303 -55.8951
lclavicle 9.24349e-015 2.34566e-014
lhumerus -15.5896 1.9698 81.5938
lradius 42.303
lwrist -16.7425
lhand -34.4429 -41.9142
lfingers 7.12502
lthumb -7.60711 -12.071
rfemur -19.6628 3.05027 12.8137
rtibia 44.5479
rfoot -28.8946 -18.3987
rtoes -16.1302
lfemur -17.8298 -0.737689 -8.73259
ltibia 42.2216
lfoot -33.9209 19.8824
ltoes -25.8419
134
root 22.7539 15.9519 -0.808506 161.239 -85.4641 -158.566
lowerback -8.9269 -0.440414 2.42195
upperback 3.25653 -1.00948 1.25926
thorax 8.45375 -0.407741 -0.192308
lowerneck -5.72219 0.496415 -4.99979
upperneck 18.3591 0.201082 4.20995
head 6.49268 -0.0508266 2.18192
rclavicle 1.36913e-014 -1.78906e-014
rhumerus -14.1723 15.0503 -82.5375
rradius 41.6745
rwrist 9.01882
rhand -36.7722 -26.1381
rfingers 7.12502
rthumb -9.85483 -55.8875
lclavicle 1.36913e-014 -1.78906e-014
lhumerus -15.6941 2.32076 81.5304
lradius 42.3293
lwrist -16.7754
lhand -34.4398 -41.8099
lfingers 7.12502
lthumb -7.60405 -11.9666
rfemur -19.6639 3.06957 12.7182
rtibia 44.5528
rfoot -28.8792 -18.2245
rtoes -16.205
lfemur -17.73 -0.847443 -8.83302
ltibia 42.2283
lfoot -34.1238 20.0254
ltoes -25.6358
135
root 22.7524 15.9503 -0.800381 162.05 -85.3608 -159.408
lowerback -8.93104 -0.438841 2.37579
upperback 3.23821 -0.998009 1.2272
thorax 8.4365 -0.403617 -0.198479
lowerneck -5.6797 0.547836 -5.05157
upperneck 18.3829 0.282835 4.15761
head 6.48903 -0.0204936 2.17949
rclavicle -2.56929e-014 1.78906e-014
rhumerus -14.3166 15.1201 -82.6921
rradius 41.7225
rwrist 8.91189
rhand -36.7384 -26.1782
rfingers 7.12502
rthumb -9.82228 -55.9291
lclavicle -2.56929e-014 1.78906e-014
lhumerus -15.803 2.64209 81.4694
lradius 42.3636
lwrist -16.8026
lhand -34.4763 -41.7374
lfingers 7.12502
lthumb -7.63933 -11.8954
rfemur -19.6603 3.05242 12.6386
rtibia 44.5545
rfoot -28.8681 -18.0587
rtoes -16.2716
lfemur -17.6621 -0.866547 -8.90402
ltibia 42.2425
lfoot -34.258 20.0736
ltoes -25.4824
136
root 22.7515 15.9491 -0.793142 162.489 -85.2826 -159.873
lowerback -8.93266 -0.44643 2.32855
upperback 3.2205 -0.999691 1.20648
thorax 8.41845 -0.406368 -0.194117
lowerneck -5.69653 0.596698 -5.0549
upperneck 18.4329 0.368461 4.04674
head 6.50454 0.0109841 2.15104
rclavicle 1.46604e-014 -3.97569e-015
rhumerus -14.4661 15.1815 -82.8399
rradius 41.7809
rwrist 8.81608
rhand -36.6783 -26.257
rfingers 7.12502
rthumb -9.76423 -56.0106
lclavicle 1.46604e-014 -3.97569e-015
lhumerus -15.9056 2.93231 81.4092
lradius 42.3984
lwrist -16.8165
lhand -34.5306 -41.6705
lfingers 7.12502
lthumb -7.69177 -11.8304
rfemur -19.6509 3.02465 12.5862
rtibia 44.55
rfoot -28.8478 -17.9234
rtoes -16.327
lfemur -17.6216 -0.772382 -8.93679
ltibia 42.2661
lfoot -34.3122 20.0237
ltoes -25.3837
